<svg id="svg" version="1.1" width="400" height="22.666666666666664" xmlns="http://www.w3.org/2000/svg" xmlns:xlink="http://www.w3.org/1999/xlink" style="display: block;"><g id="svgg"><path id="path0" d="" stroke="none" fill="#f0f0f0" fill-rule="evenodd"></path><path id="path1" d="" stroke="none" fill="#ffffff" fill-rule="evenodd"></path><path id="path2" d="" stroke="none" fill="#ffe3e3" fill-rule="evenodd"></path><path id="path3" d="M0.000 11.917 L 0.000 22.667 200.000 22.667 L 400.000 22.667 400.000 11.917 L 400.000 1.167 399.291 1.167 C 398.900 1.167,398.319 1.247,397.999 1.344 C 397.679 1.442,396.983 1.517,396.453 1.510 C 395.922 1.503,395.172 1.573,394.786 1.665 C 394.399 1.757,393.596 1.867,393.000 1.910 C 391.929 1.988,390.079 2.168,387.000 2.494 C 386.129 2.586,384.703 2.722,383.830 2.797 C 382.958 2.871,382.143 2.995,382.020 3.071 C 381.897 3.147,381.355 3.199,380.815 3.187 C 380.276 3.175,379.496 3.241,379.083 3.333 C 378.670 3.426,377.901 3.511,377.375 3.522 C 376.848 3.534,376.229 3.615,376.000 3.703 C 375.771 3.791,375.107 3.857,374.525 3.850 C 373.943 3.843,373.156 3.911,372.775 4.001 C 372.395 4.091,371.596 4.201,371.000 4.245 C 369.910 4.326,368.163 4.497,365.083 4.824 C 364.167 4.922,362.739 5.062,361.911 5.136 C 361.082 5.209,360.307 5.330,360.189 5.403 C 360.070 5.476,359.485 5.529,358.887 5.520 C 358.289 5.511,357.489 5.577,357.109 5.668 C 356.728 5.758,355.929 5.867,355.333 5.910 C 354.738 5.954,353.462 6.070,352.500 6.169 C 349.342 6.494,347.773 6.651,346.143 6.806 C 345.259 6.890,344.444 7.015,344.332 7.084 C 344.221 7.153,343.685 7.199,343.142 7.187 C 342.599 7.175,341.839 7.240,341.453 7.332 C 341.066 7.423,340.262 7.534,339.667 7.577 C 338.596 7.655,336.746 7.835,333.667 8.160 C 332.796 8.252,331.370 8.389,330.497 8.463 C 329.625 8.538,328.810 8.661,328.687 8.738 C 328.564 8.814,328.021 8.866,327.482 8.854 C 326.942 8.842,326.163 8.907,325.750 9.000 C 325.337 9.093,324.568 9.178,324.041 9.189 C 323.514 9.200,322.896 9.282,322.667 9.370 C 322.438 9.458,321.774 9.524,321.192 9.517 C 320.610 9.509,319.822 9.577,319.442 9.668 C 319.061 9.758,318.262 9.868,317.667 9.912 C 316.576 9.992,314.829 10.164,311.750 10.491 C 310.833 10.589,309.406 10.729,308.577 10.802 C 307.749 10.876,306.974 10.996,306.856 11.070 C 306.737 11.143,306.151 11.195,305.554 11.186 C 304.956 11.177,304.156 11.244,303.775 11.334 C 303.395 11.425,302.596 11.535,302.000 11.579 C 301.404 11.623,300.204 11.732,299.333 11.822 C 296.283 12.135,294.403 12.323,292.809 12.474 C 291.925 12.557,291.111 12.682,290.999 12.751 C 290.887 12.820,290.352 12.866,289.809 12.854 C 289.266 12.841,288.506 12.907,288.119 12.998 C 287.733 13.090,286.929 13.201,286.333 13.244 C 285.279 13.320,283.611 13.482,280.292 13.830 C 279.398 13.923,277.972 14.060,277.122 14.133 C 276.273 14.206,275.477 14.328,275.353 14.404 C 275.230 14.480,274.688 14.533,274.148 14.521 C 273.609 14.508,272.830 14.574,272.417 14.667 C 272.004 14.759,271.235 14.844,270.708 14.856 C 270.181 14.867,269.563 14.948,269.333 15.036 C 269.104 15.124,268.441 15.190,267.859 15.183 C 267.277 15.176,266.489 15.244,266.109 15.334 C 265.728 15.425,264.929 15.535,264.333 15.579 C 263.243 15.659,261.496 15.830,258.417 16.158 C 257.500 16.255,256.072 16.395,255.244 16.469 C 254.415 16.543,253.641 16.663,253.522 16.736 C 253.404 16.809,252.818 16.862,252.220 16.853 C 251.623 16.844,250.822 16.911,250.442 17.001 C 250.061 17.091,249.262 17.201,248.667 17.244 C 248.071 17.287,246.796 17.403,245.833 17.502 C 242.675 17.827,241.107 17.984,239.476 18.139 C 238.592 18.223,237.777 18.348,237.666 18.417 C 237.554 18.486,237.018 18.533,236.476 18.520 C 235.933 18.508,235.172 18.573,234.786 18.665 C 234.399 18.757,233.596 18.867,233.000 18.910 C 231.945 18.987,230.278 19.149,226.958 19.496 C 226.065 19.590,224.638 19.726,223.789 19.800 C 222.939 19.873,222.143 19.995,222.020 20.071 C 221.897 20.147,221.355 20.199,220.815 20.187 C 220.276 20.175,219.496 20.241,219.083 20.333 C 218.670 20.426,217.901 20.511,217.375 20.522 C 216.848 20.534,216.229 20.615,216.000 20.703 C 215.771 20.791,215.107 20.857,214.525 20.850 C 213.943 20.843,213.156 20.911,212.775 21.001 C 212.395 21.091,211.596 21.201,211.000 21.244 C 210.404 21.287,209.167 21.401,208.250 21.497 C 199.204 22.442,200.796 22.442,191.750 21.497 C 190.833 21.401,189.596 21.287,189.000 21.244 C 188.404 21.201,187.605 21.091,187.225 21.001 C 186.844 20.911,186.057 20.843,185.475 20.850 C 184.893 20.857,184.229 20.791,184.000 20.703 C 183.771 20.615,183.152 20.534,182.625 20.522 C 182.099 20.511,181.330 20.426,180.917 20.333 C 180.504 20.241,179.724 20.175,179.185 20.187 C 178.645 20.199,178.103 20.147,177.980 20.071 C 177.857 19.995,177.061 19.873,176.211 19.800 C 175.362 19.726,173.935 19.590,173.042 19.496 C 169.722 19.149,168.055 18.987,167.000 18.910 C 166.404 18.867,165.601 18.757,165.214 18.665 C 164.828 18.573,164.067 18.508,163.524 18.520 C 162.982 18.533,162.446 18.486,162.334 18.417 C 162.223 18.348,161.408 18.224,160.524 18.140 C 158.930 17.990,157.050 17.802,154.000 17.488 C 153.129 17.399,151.929 17.289,151.333 17.245 C 150.737 17.201,149.939 17.091,149.558 17.001 C 149.178 16.911,148.377 16.844,147.780 16.853 C 147.182 16.862,146.596 16.809,146.478 16.736 C 146.359 16.663,145.585 16.543,144.756 16.469 C 143.928 16.395,142.500 16.255,141.583 16.158 C 138.504 15.830,136.757 15.659,135.667 15.579 C 135.071 15.535,134.272 15.425,133.891 15.334 C 133.511 15.244,132.723 15.176,132.141 15.183 C 131.559 15.190,130.896 15.124,130.667 15.036 C 130.438 14.948,129.819 14.867,129.292 14.856 C 128.765 14.844,127.996 14.759,127.583 14.667 C 127.170 14.574,126.391 14.508,125.852 14.521 C 125.312 14.533,124.770 14.480,124.647 14.404 C 124.523 14.328,123.746 14.207,122.920 14.136 C 122.093 14.064,120.667 13.928,119.750 13.833 C 116.153 13.459,114.707 13.319,113.667 13.244 C 113.071 13.201,112.267 13.090,111.881 12.998 C 111.494 12.907,110.734 12.841,110.191 12.854 C 109.648 12.866,109.113 12.820,109.001 12.751 C 108.889 12.682,108.075 12.557,107.191 12.474 C 105.597 12.323,103.717 12.135,100.667 11.822 C 99.796 11.732,98.596 11.623,98.000 11.579 C 97.404 11.535,96.605 11.425,96.225 11.334 C 95.844 11.244,95.044 11.177,94.446 11.186 C 93.849 11.195,93.263 11.143,93.144 11.070 C 93.026 10.996,92.251 10.876,91.423 10.802 C 90.594 10.729,89.167 10.589,88.250 10.491 C 85.171 10.164,83.424 9.992,82.333 9.912 C 81.737 9.868,80.939 9.758,80.558 9.668 C 80.178 9.577,79.390 9.509,78.808 9.517 C 78.226 9.524,77.563 9.458,77.333 9.370 C 77.104 9.282,76.486 9.200,75.959 9.189 C 75.432 9.178,74.663 9.093,74.250 9.000 C 73.837 8.907,73.058 8.842,72.518 8.854 C 71.979 8.866,71.436 8.814,71.313 8.738 C 71.190 8.661,70.394 8.539,69.545 8.466 C 68.695 8.393,67.269 8.257,66.375 8.163 C 63.056 7.815,61.388 7.654,60.333 7.577 C 59.737 7.534,58.934 7.423,58.547 7.332 C 58.161 7.240,57.401 7.175,56.858 7.187 C 56.315 7.199,55.779 7.153,55.668 7.084 C 55.556 7.015,54.741 6.890,53.857 6.807 C 52.264 6.657,50.384 6.469,47.333 6.155 C 46.462 6.065,45.262 5.956,44.667 5.912 C 44.071 5.868,43.272 5.758,42.891 5.668 C 42.511 5.577,41.711 5.511,41.113 5.520 C 40.515 5.529,39.930 5.476,39.811 5.403 C 39.693 5.330,38.918 5.209,38.089 5.136 C 37.261 5.062,35.833 4.922,34.917 4.824 C 31.837 4.497,30.090 4.326,29.000 4.245 C 28.404 4.201,27.605 4.091,27.225 4.001 C 26.844 3.911,26.057 3.843,25.475 3.850 C 24.893 3.857,24.229 3.791,24.000 3.703 C 23.771 3.615,23.152 3.534,22.625 3.522 C 22.099 3.511,21.330 3.426,20.917 3.333 C 20.504 3.241,19.724 3.175,19.185 3.187 C 18.645 3.199,18.103 3.147,17.980 3.071 C 17.857 2.995,17.042 2.871,16.170 2.797 C 15.297 2.722,13.871 2.586,13.000 2.494 C 9.921 2.168,8.071 1.988,7.000 1.910 C 6.404 1.867,5.601 1.757,5.214 1.665 C 4.828 1.573,4.078 1.503,3.547 1.510 C 3.017 1.517,2.321 1.442,2.001 1.344 C 1.681 1.247,1.100 1.167,0.709 1.167 L 0.000 1.167 0.000 11.917 " stroke="none" fill="#f9f5f3" fill-rule="evenodd"></path><path id="path4" d="M199.708 22.282 C 199.869 22.323,200.131 22.323,200.292 22.282 C 200.452 22.240,200.321 22.205,200.000 22.205 C 199.679 22.205,199.548 22.240,199.708 22.282 " stroke="none" fill="#ffefef" fill-rule="evenodd"></path></g></svg>