<?xml version="1.0" encoding="UTF-8" ?>
<!DOCTYPE svg PUBLIC "-//W3C//DTD SVG 1.1//EN" "http://www.w3.org/Graphics/SVG/1.1/DTD/svg11.dtd">
<svg width="95pt" height="94pt" viewBox="0 0 95 94" version="1.1" xmlns="http://www.w3.org/2000/svg">
<g id="#826550ff">
<path fill="#826550" opacity="1.00" d=" M 42.63 0.00 L 51.38 0.00 C 58.83 0.69 65.99 3.24 72.38 7.09 C 71.19 8.03 70.00 8.97 68.80 9.92 C 59.53 4.73 48.42 2.76 38.01 5.11 C 26.47 7.56 16.14 15.01 10.16 25.18 C 3.28 36.53 2.24 51.18 7.43 63.39 C 11.48 73.35 19.52 81.37 29.15 86.03 C 29.33 87.67 29.51 89.32 29.69 90.97 C 13.54 84.45 1.47 68.85 0.00 51.38 L 0.00 42.58 C 1.02 32.70 5.06 23.11 11.74 15.72 C 19.56 6.80 30.85 1.19 42.63 0.00 Z" />
<path fill="#826550" opacity="1.00" d=" M 71.04 14.07 C 73.65 12.24 75.91 9.23 79.41 9.36 C 70.84 26.41 61.05 43.52 46.18 55.89 C 48.92 59.00 53.55 61.19 53.63 65.89 C 54.81 75.16 46.68 82.37 38.60 85.03 C 38.76 87.70 40.04 90.20 39.96 92.87 C 38.48 94.28 36.19 93.04 35.30 91.58 C 33.31 88.37 34.03 84.40 34.49 80.87 C 31.92 77.55 30.85 73.19 31.77 69.08 C 33.52 59.68 40.51 52.60 44.22 44.03 C 49.39 31.23 60.72 22.59 71.04 14.07 M 46.32 46.20 C 43.41 47.34 44.89 51.96 47.96 51.00 C 50.89 49.86 49.28 45.39 46.32 46.20 M 41.40 63.40 C 38.06 65.29 36.54 69.39 36.72 73.08 C 36.47 76.07 40.42 77.75 42.88 76.75 C 46.65 74.67 48.69 70.12 48.48 65.92 C 47.65 63.19 43.83 61.72 41.40 63.40 Z" />
<path fill="#826550" opacity="1.00" d=" M 79.71 19.05 C 80.42 17.67 81.13 16.30 81.85 14.93 C 85.45 18.96 88.37 23.53 90.59 28.44 C 89.15 28.67 87.71 28.91 86.27 29.14 C 84.43 25.56 82.23 22.18 79.71 19.05 Z" />
<path fill="#826550" opacity="1.00" d=" M 13.48 37.44 C 17.47 32.78 24.52 31.87 30.16 33.54 C 35.10 34.82 38.76 39.83 38.28 44.94 C 38.25 48.40 36.18 51.29 34.25 53.98 C 27.92 54.70 20.98 55.04 15.31 51.64 C 10.44 48.78 10.47 41.62 13.48 37.44 M 21.45 38.63 C 17.54 39.14 15.33 44.09 17.99 47.09 C 22.35 49.01 29.59 49.90 32.21 44.89 C 33.45 39.01 25.71 37.28 21.45 38.63 Z" />
<path fill="#826550" opacity="1.00" d=" M 67.22 37.14 C 76.54 36.02 85.69 33.81 94.99 32.54 C 92.35 36.76 87.86 39.36 83.55 41.59 C 74.59 45.82 64.86 48.04 55.55 51.34 C 59.95 47.07 65.00 43.08 67.22 37.14 Z" />
<path fill="#826550" opacity="1.00" d=" M 90.01 43.34 C 91.34 42.43 92.66 41.51 94.00 40.61 C 94.99 50.07 93.73 59.88 89.24 68.35 C 82.14 82.68 67.26 92.60 51.36 94.00 L 44.58 94.00 C 44.66 92.62 44.74 91.23 44.82 89.85 C 57.25 90.44 69.88 85.55 78.34 76.36 C 86.78 67.70 90.87 55.34 90.01 43.34 Z" />
</g>
</svg>
