<?xml version="1.0" encoding="UTF-8" ?>
<!DOCTYPE svg PUBLIC "-//W3C//DTD SVG 1.1//EN" "http://www.w3.org/Graphics/SVG/1.1/DTD/svg11.dtd">
<svg width="95pt" height="91pt" viewBox="0 0 95 91" version="1.1" xmlns="http://www.w3.org/2000/svg">
<g id="#826550ff">
<path fill="#826550" opacity="1.00" d=" M 42.40 0.00 L 52.28 0.00 C 64.55 1.31 76.30 7.28 84.24 16.78 C 90.39 23.98 94.13 33.11 95.00 42.52 L 95.00 51.02 C 93.69 64.13 86.58 76.36 76.00 84.15 C 75.64 82.62 75.24 81.09 74.82 79.57 C 84.49 71.66 90.90 59.56 90.79 46.95 C 91.06 34.28 84.94 21.80 75.09 13.91 C 65.71 6.16 52.95 2.68 40.93 4.58 C 29.25 6.30 18.40 13.01 11.70 22.73 C 6.57 30.07 3.84 39.06 4.23 48.02 C 4.45 60.28 10.81 71.89 20.20 79.60 C 19.77 81.11 19.38 82.63 19.01 84.15 C 8.45 76.39 1.38 64.22 0.00 51.17 L 0.00 42.50 C 0.80 34.05 3.87 25.83 8.97 19.03 C 16.83 8.36 29.29 1.53 42.40 0.00 Z" />
<path fill="#826550" opacity="1.00" d=" M 38.24 17.98 C 37.50 12.52 42.57 7.36 48.04 7.97 C 53.15 7.98 57.43 12.96 56.76 18.01 C 56.68 21.86 53.48 24.48 50.33 26.09 C 56.54 26.05 62.77 25.77 68.96 26.15 C 71.87 26.96 70.97 30.79 70.99 33.05 C 71.27 35.41 68.98 36.06 67.24 36.70 C 67.25 51.32 67.28 65.93 67.22 80.55 C 68.45 81.24 70.66 81.22 70.86 82.99 C 71.14 85.68 71.67 88.89 69.53 91.00 L 25.57 91.00 C 23.27 89.00 23.88 85.69 24.14 83.01 C 24.31 81.22 26.54 81.24 27.78 80.56 C 27.72 65.94 27.75 51.32 27.76 36.70 C 26.03 36.03 23.73 35.43 24.00 33.06 C 24.10 30.78 23.03 26.97 26.01 26.15 C 32.22 25.76 38.46 26.05 44.68 26.09 C 41.52 24.48 38.31 21.84 38.24 17.98 M 34.01 36.24 C 34.00 40.45 33.99 44.66 34.01 48.87 C 38.15 44.52 42.71 40.60 46.86 36.25 C 42.58 36.25 38.29 36.25 34.01 36.24 M 34.00 64.32 C 34.00 69.17 33.99 74.02 34.01 78.87 C 42.96 70.08 51.89 61.27 60.91 52.56 C 61.08 47.67 60.97 42.77 60.99 37.88 C 52.06 46.76 43.11 55.63 34.00 64.32 M 47.60 80.97 C 52.07 81.02 56.53 81.00 61.00 81.00 C 61.00 76.62 61.00 72.25 60.99 67.88 C 56.56 72.27 52.23 76.78 47.60 80.97 Z" />
</g>
</svg>
