<?xml version="1.0" encoding="UTF-8" ?>
<!DOCTYPE svg PUBLIC "-//W3C//DTD SVG 1.1//EN" "http://www.w3.org/Graphics/SVG/1.1/DTD/svg11.dtd">
<svg width="95pt" height="88pt" viewBox="0 0 95 88" version="1.1" xmlns="http://www.w3.org/2000/svg">
<g id="#826550ff">
<path fill="#826550" opacity="1.00" d=" M 42.18 0.00 L 52.41 0.00 C 58.24 0.74 63.94 2.38 69.24 4.93 C 68.37 6.11 67.49 7.29 66.62 8.48 C 57.79 4.29 47.60 2.92 38.03 5.14 C 23.29 8.32 10.60 19.70 6.13 34.15 C 2.21 46.07 4.34 59.53 11.13 70.00 C 9.43 70.00 7.74 70.01 6.05 70.01 C 2.82 64.26 0.78 57.88 0.00 51.33 L 0.00 42.46 C 0.87 34.01 3.94 25.77 9.07 18.98 C 16.84 8.37 29.20 1.64 42.18 0.00 Z" />
<path fill="#826550" opacity="1.00" d=" M 75.77 5.77 C 79.02 3.03 84.28 4.74 86.35 8.09 C 87.13 11.33 85.50 14.41 84.48 17.39 C 79.16 32.36 75.65 48.11 67.94 62.12 C 63.52 62.81 59.04 62.83 54.58 62.73 C 53.56 68.92 54.01 75.23 54.35 81.45 C 60.89 83.25 68.87 82.41 73.76 88.00 L 27.54 88.00 C 32.63 82.67 40.43 82.55 47.26 81.92 C 47.26 75.48 47.22 69.03 47.28 62.58 C 42.52 61.59 37.65 62.12 32.83 61.99 C 29.72 68.28 28.15 75.80 22.54 80.48 C 21.06 81.91 18.88 81.38 17.03 81.54 C 11.82 81.42 6.25 82.76 1.43 80.14 C 1.49 78.80 1.54 77.46 1.60 76.12 C 7.68 73.38 14.43 75.67 20.72 74.63 C 24.57 71.89 26.54 67.27 27.89 62.89 C 26.02 61.92 23.82 61.16 22.74 59.20 C 20.99 56.59 21.28 53.33 21.23 50.34 C 23.86 47.70 27.48 46.86 31.08 46.59 C 31.61 41.94 33.46 37.14 37.52 34.48 C 45.35 29.05 55.58 29.63 64.46 31.58 C 66.65 22.58 67.29 11.37 75.77 5.77 M 43.52 38.51 C 40.34 40.00 38.60 43.25 38.00 46.58 C 47.09 47.09 55.86 49.63 64.76 51.31 C 63.35 47.16 63.81 42.74 63.73 38.43 C 57.19 36.74 49.88 35.55 43.52 38.51 Z" />
<path fill="#826550" opacity="1.00" d=" M 87.97 21.87 C 91.84 28.10 94.25 35.20 95.00 42.50 L 95.00 51.28 C 93.67 64.19 86.80 76.35 76.39 84.11 C 75.26 83.15 74.14 82.20 73.01 81.25 C 85.20 72.41 92.48 57.07 90.56 42.00 C 90.13 37.54 88.71 33.27 86.93 29.18 C 85.49 26.76 87.30 24.21 87.97 21.87 Z" />
</g>
</svg>
