<?xml version="1.0" encoding="UTF-8" ?>
<!DOCTYPE svg PUBLIC "-//W3C//DTD SVG 1.1//EN" "http://www.w3.org/Graphics/SVG/1.1/DTD/svg11.dtd">
<svg width="370pt" height="153pt" viewBox="0 0 370 153" version="1.1" xmlns="http://www.w3.org/2000/svg">
<g id="#ffffffff">
<path fill="#ffffff" opacity="1.00" d=" M 118.78 0.00 L 122.78 0.00 C 124.21 0.89 125.87 2.00 125.78 3.92 C 126.33 7.35 123.58 9.88 120.93 11.48 C 123.60 14.63 124.07 19.23 121.93 22.80 C 118.42 29.47 108.53 30.78 102.95 26.03 C 98.65 22.21 98.56 14.67 102.93 10.85 C 103.68 9.55 104.89 11.31 105.79 11.50 C 102.60 14.44 101.62 18.87 103.62 22.78 C 107.64 16.63 111.00 10.09 114.82 3.82 C 115.76 2.19 117.25 1.03 118.78 0.00 M 115.29 9.76 C 119.09 9.91 123.65 6.93 122.17 2.65 C 118.17 2.32 117.20 7.17 115.29 9.76 M 114.12 11.76 C 111.53 16.11 109.15 20.58 106.42 24.84 C 109.14 25.79 112.33 26.42 114.98 24.92 C 118.40 23.18 120.62 18.76 118.96 15.09 C 118.05 13.17 115.93 12.52 114.12 11.76 Z" />
<path fill="#ffffff" opacity="1.00" d=" M 156.47 18.49 C 159.79 13.10 162.71 7.46 166.10 2.11 C 167.13 2.01 169.19 1.80 170.21 1.70 C 168.92 4.05 167.60 6.39 166.17 8.66 C 168.06 8.67 170.61 8.67 171.09 11.01 C 171.69 15.15 167.99 18.21 166.88 21.97 C 173.87 20.53 173.54 10.94 180.12 9.09 C 182.29 8.20 186.12 9.15 185.79 12.06 C 185.42 17.20 180.05 21.51 174.89 20.06 C 174.58 21.23 174.32 22.41 174.08 23.59 C 177.23 25.64 180.59 23.19 182.96 21.09 C 185.92 18.23 188.30 14.84 190.68 11.50 C 189.97 9.16 189.90 6.79 191.37 4.69 C 192.78 5.58 194.09 6.90 193.47 8.72 C 194.74 10.64 197.22 12.30 196.75 14.90 C 195.67 18.41 192.68 21.10 192.17 24.83 C 199.31 21.62 202.88 14.05 207.74 8.32 C 208.41 8.69 209.76 9.42 210.44 9.79 C 208.89 13.91 208.30 18.30 207.70 22.64 C 214.03 17.56 216.42 9.36 220.91 2.83 C 221.68 0.99 224.00 2.04 225.48 1.67 C 223.89 4.58 222.23 7.45 220.48 10.27 C 221.88 9.68 223.24 8.72 224.82 8.74 C 226.77 8.91 227.92 11.27 226.95 12.93 C 225.04 16.91 222.36 20.49 220.66 24.58 C 227.26 23.33 229.53 16.16 233.02 11.35 C 235.15 8.25 241.35 7.26 242.72 11.51 C 243.69 15.47 240.14 18.52 238.85 21.98 C 244.89 20.53 246.41 13.88 249.46 9.32 C 252.71 10.14 258.00 6.77 259.48 11.06 C 258.99 15.90 255.07 19.48 253.33 23.90 C 255.68 22.67 257.55 20.79 259.49 19.03 C 260.62 18.95 261.07 19.45 260.84 20.53 C 257.87 24.39 253.11 27.47 248.06 26.78 C 246.58 26.60 245.90 25.04 244.93 24.12 C 243.03 27.43 241.19 30.76 239.21 34.01 C 238.24 34.01 236.31 33.99 235.34 33.98 C 237.32 30.35 239.44 26.81 241.50 23.23 C 239.60 23.60 237.54 23.70 236.10 25.16 C 233.93 27.20 230.68 27.56 228.11 26.10 C 227.69 25.33 227.27 24.57 226.85 23.80 C 224.52 25.86 219.65 28.89 217.53 25.11 C 217.38 20.00 222.11 16.40 223.46 11.64 C 216.83 13.77 214.73 21.21 211.21 26.48 C 210.26 26.50 208.37 26.54 207.43 26.56 L 207.94 25.09 C 204.85 26.76 199.97 28.36 197.98 24.23 C 198.74 23.67 199.51 23.11 200.29 22.58 C 201.12 23.83 202.92 24.49 203.77 22.96 C 205.09 20.50 205.09 17.60 205.61 14.91 C 203.49 17.47 201.56 20.21 199.15 22.51 L 197.94 22.38 C 198.14 22.60 198.54 23.05 198.74 23.27 C 196.28 25.08 193.27 27.90 189.97 26.50 C 187.56 25.30 188.60 22.30 189.80 20.62 C 191.00 18.02 193.64 15.69 193.07 12.59 C 188.70 17.08 185.73 23.21 179.75 25.89 C 176.49 27.66 171.15 27.26 170.40 22.87 C 168.72 23.30 167.03 23.66 165.34 23.97 C 162.72 27.31 156.33 28.72 154.62 23.77 C 152.53 25.48 149.93 27.63 147.04 26.63 C 144.96 26.10 144.79 23.39 145.85 21.85 C 147.01 18.74 150.20 16.26 149.81 12.73 C 145.33 16.96 142.49 22.94 136.95 26.06 C 134.86 27.23 132.02 27.13 130.53 25.05 C 128.33 26.93 123.05 28.18 122.68 24.06 C 123.18 20.70 125.72 18.08 127.15 15.08 C 128.66 12.00 131.13 8.85 134.87 8.73 C 137.79 8.61 137.77 12.62 140.50 12.80 C 138.28 16.67 135.79 20.42 134.07 24.56 C 135.77 24.39 137.28 23.57 138.48 22.38 C 141.98 19.06 144.78 15.09 147.59 11.19 C 146.24 8.94 146.81 6.65 148.35 4.72 C 148.84 5.23 149.80 6.23 150.28 6.73 C 149.24 10.13 154.27 11.56 153.50 14.98 C 152.16 18.34 149.79 21.18 148.59 24.61 C 152.08 24.05 154.47 21.16 156.47 18.49 M 165.47 11.48 C 162.71 13.51 160.61 17.84 163.21 20.81 C 164.68 18.21 166.44 15.75 167.55 12.97 C 167.74 11.73 166.60 10.73 165.47 11.48 M 176.28 18.17 C 179.77 18.62 183.31 14.70 182.08 11.33 C 178.97 12.38 177.71 15.52 176.28 18.17 M 234.83 14.86 C 233.33 17.54 231.52 20.07 230.40 22.95 C 230.49 25.36 233.01 23.75 234.16 23.29 C 233.99 21.18 234.29 19.17 236.66 18.63 C 237.51 16.34 241.00 13.60 238.94 11.20 C 236.83 11.20 235.78 13.32 234.83 14.86 M 131.53 14.44 C 129.61 17.76 127.49 20.99 126.07 24.56 C 130.00 24.28 131.95 20.53 133.75 17.55 C 134.62 15.90 136.01 14.31 135.78 12.31 C 133.91 11.20 132.40 12.95 131.53 14.44 M 245.10 23.63 C 246.09 23.66 248.08 23.72 249.08 23.76 C 251.32 19.85 254.41 16.21 255.33 11.71 C 249.51 12.89 248.29 19.55 245.10 23.63 M 158.07 23.04 C 158.37 23.40 158.96 24.13 159.26 24.49 C 160.19 24.05 161.10 23.61 162.02 23.15 C 161.28 22.04 160.54 20.91 159.82 19.79 C 159.23 20.87 158.65 21.96 158.07 23.04 Z" />
<path fill="#ffffff" opacity="1.00" d=" M 35.24 94.98 C 35.31 80.47 35.16 65.97 35.32 51.46 C 40.86 51.63 46.42 51.30 51.96 51.61 C 55.12 51.98 56.25 55.28 55.77 58.03 C 55.32 62.88 56.77 68.08 54.69 72.66 C 56.19 74.86 55.69 77.56 55.76 80.06 C 55.69 83.76 55.87 87.47 55.69 91.17 C 55.51 93.41 53.29 94.99 51.14 94.97 C 45.84 95.06 40.54 94.98 35.24 94.98 M 43.33 59.39 L 42.89 59.33 C 43.06 62.75 43.07 66.18 42.88 69.60 L 43.42 69.51 L 43.26 69.54 C 44.89 69.73 46.55 69.57 48.18 69.45 C 48.11 65.91 49.24 62.37 48.37 58.87 C 46.69 59.04 44.97 58.96 43.33 59.39 M 43.00 77.00 C 43.20 80.39 42.60 83.91 43.28 87.21 C 44.90 87.65 46.59 87.37 48.23 87.23 C 48.26 83.82 48.29 80.41 48.26 77.00 C 46.51 77.00 44.75 77.00 43.00 77.00 Z" />
<path fill="#ffffff" opacity="1.00" d=" M 70.37 52.37 C 74.30 50.65 78.82 51.83 83.00 51.49 C 85.72 51.12 88.86 52.89 88.92 55.86 C 89.10 67.26 88.98 78.67 88.97 90.07 C 89.11 92.68 86.81 95.06 84.19 94.97 C 80.43 95.04 76.68 95.06 72.92 94.95 C 70.38 94.98 68.14 92.55 68.50 90.00 C 68.49 79.00 68.51 68.00 68.49 57.00 C 68.37 55.28 68.77 53.30 70.37 52.37 M 76.00 59.25 C 76.00 68.56 76.00 77.88 76.00 87.19 C 76.94 87.25 78.82 87.35 79.77 87.40 C 80.10 87.26 80.77 86.98 81.10 86.84 C 81.34 78.62 81.43 70.36 81.00 62.15 C 81.10 61.43 81.30 59.99 81.40 59.27 C 79.60 59.25 77.80 59.25 76.00 59.25 Z" />
<path fill="#ffffff" opacity="1.00" d=" M 101.45 94.92 C 101.57 80.45 101.46 65.97 101.50 51.50 C 106.66 51.53 111.82 51.44 116.98 51.52 C 119.43 51.39 121.86 53.35 121.92 55.87 C 122.09 61.28 122.01 66.70 121.97 72.11 C 122.09 74.10 120.79 75.64 119.40 76.86 C 120.46 82.90 121.45 88.95 122.47 94.99 C 119.94 94.99 117.41 94.99 114.89 95.09 C 114.22 91.63 113.54 88.17 112.95 84.69 C 112.58 82.15 112.21 79.61 111.75 77.08 C 111.12 77.06 109.86 77.02 109.23 77.01 C 109.27 83.01 109.24 89.01 109.25 95.01 C 106.65 95.01 104.05 95.01 101.45 94.92 M 109.25 59.24 C 109.20 62.64 109.48 66.05 108.94 69.42 L 109.35 69.39 C 110.90 70.15 112.64 69.45 114.27 69.40 C 114.25 67.16 114.25 64.92 114.26 62.68 C 114.26 61.54 114.26 60.40 114.26 59.27 C 112.59 59.26 110.92 59.25 109.25 59.24 Z" />
<path fill="#ffffff" opacity="1.00" d=" M 135.38 52.51 C 138.23 50.71 141.86 51.78 145.05 51.48 C 148.24 51.36 153.01 51.09 153.90 55.10 C 154.13 66.74 153.95 78.40 153.99 90.04 C 154.35 92.82 151.72 95.10 149.07 94.98 C 145.38 95.01 141.67 95.09 137.98 94.93 C 135.42 94.93 133.39 92.48 133.52 90.00 C 133.46 79.32 133.53 68.64 133.49 57.97 C 133.44 56.00 133.60 53.72 135.38 52.51 M 141.21 59.30 C 141.30 68.62 141.23 77.93 141.25 87.24 C 142.65 87.25 144.05 87.25 145.45 87.26 C 145.86 77.93 144.50 68.45 146.44 59.26 C 144.70 59.25 142.95 59.27 141.21 59.30 M 146.48 87.15 C 146.93 79.41 146.87 71.62 146.52 63.88 C 146.00 71.61 146.09 79.41 146.48 87.15 Z" />
<path fill="#ffffff" opacity="1.00" d=" M 166.75 51.50 C 171.83 51.53 176.91 51.44 181.99 51.51 C 184.46 51.31 187.17 53.28 186.99 55.92 C 187.02 67.28 187.00 78.64 187.00 90.01 C 187.30 92.36 185.47 94.74 183.08 94.90 C 177.64 95.16 172.19 94.92 166.75 95.00 C 166.75 80.50 166.75 66.00 166.75 51.50 M 174.25 59.24 C 174.24 68.55 174.26 77.85 174.24 87.15 C 175.23 87.23 177.22 87.37 178.21 87.44 C 178.27 81.63 178.23 75.81 178.28 70.00 C 178.37 67.69 177.82 65.21 178.91 63.07 C 178.93 71.38 178.68 79.72 179.13 88.03 C 180.54 84.53 179.91 80.72 180.00 77.06 C 179.82 72.04 180.56 66.94 179.33 62.01 C 179.47 61.11 179.57 60.19 179.63 59.28 C 177.83 59.25 176.04 59.25 174.25 59.24 Z" />
<path fill="#ffffff" opacity="1.00" d=" M 200.00 51.49 C 202.59 51.49 205.18 51.49 207.78 51.54 C 207.73 66.02 207.74 80.50 207.77 94.98 C 205.18 95.00 202.59 95.00 200.00 95.00 C 200.00 80.50 200.00 66.00 200.00 51.49 Z" />
<path fill="#ffffff" opacity="1.00" d=" M 220.24 94.98 C 220.31 80.47 220.16 65.96 220.31 51.45 C 222.81 51.49 225.31 51.50 227.81 51.57 C 229.41 57.17 231.25 62.71 232.74 68.34 C 233.23 62.74 232.91 57.11 233.00 51.50 C 235.59 51.49 238.18 51.50 240.77 51.52 C 240.73 66.01 240.74 80.50 240.76 94.98 C 237.86 95.01 234.89 94.73 232.10 95.72 C 232.22 95.20 232.47 94.16 232.59 93.65 L 231.75 93.48 C 231.66 87.75 229.17 82.44 227.74 76.97 C 227.76 82.98 227.75 88.99 227.75 95.00 C 225.24 95.00 222.74 95.00 220.24 94.98 Z" />
<path fill="#ffffff" opacity="1.00" d=" M 253.27 55.90 C 253.23 53.36 255.60 51.39 258.09 51.54 C 262.35 51.63 266.74 51.04 270.92 51.94 C 275.63 54.44 273.21 60.77 273.69 65.03 C 271.33 65.81 268.87 66.19 266.50 66.93 C 266.18 65.45 266.00 63.93 265.87 62.42 C 265.92 61.63 266.02 60.04 266.06 59.25 C 264.29 59.25 262.52 59.25 260.76 59.25 C 260.79 62.64 260.44 66.09 261.24 69.43 C 264.44 69.65 267.65 69.67 270.86 69.70 L 271.81 69.88 C 272.12 70.45 272.74 71.58 273.05 72.15 C 273.57 78.69 272.94 85.27 273.39 91.83 C 273.11 93.68 270.90 94.89 269.12 94.94 C 265.39 95.06 261.65 95.04 257.92 94.97 C 255.76 94.97 253.52 93.38 253.33 91.14 C 253.12 87.85 253.29 84.56 253.26 81.27 C 255.36 80.81 257.40 80.12 259.51 79.68 L 260.18 79.90 C 260.26 82.51 260.21 85.11 260.49 87.71 C 262.23 87.56 263.98 87.41 265.73 87.24 C 265.77 86.95 265.85 86.36 265.90 86.07 C 265.93 85.36 265.99 83.95 266.02 83.24 C 266.02 82.64 266.02 81.42 266.02 80.81 C 266.01 79.86 266.00 77.95 265.99 76.99 C 261.88 76.44 255.47 78.89 253.44 73.91 C 253.02 67.93 253.32 61.90 253.27 55.90 Z" />
<path fill="#ffffff" opacity="1.00" d=" M 286.24 94.99 C 286.29 80.48 286.18 65.98 286.30 51.47 C 288.86 51.50 291.43 51.50 294.00 51.50 C 294.18 57.46 293.60 63.46 294.35 69.38 C 296.08 63.38 298.04 57.45 299.95 51.50 C 302.55 51.50 305.16 51.50 307.77 51.48 C 305.71 58.15 303.49 64.78 301.38 71.44 C 300.90 72.59 300.89 73.75 301.36 74.91 C 303.48 81.61 305.67 88.29 307.78 95.00 C 305.14 95.00 302.51 95.00 299.88 95.00 C 299.13 91.92 298.14 88.90 297.20 85.88 C 296.11 82.80 295.30 79.64 294.16 76.58 C 293.81 82.71 294.08 88.86 294.00 95.00 C 291.41 95.00 288.83 95.00 286.24 94.99 Z" />
<path fill="#ffffff" opacity="1.00" d=" M 319.46 94.95 C 319.55 80.46 319.47 65.98 319.50 51.50 C 322.08 51.50 324.67 51.50 327.25 51.50 C 327.25 66.00 327.25 80.50 327.25 95.01 C 324.65 95.01 322.06 95.01 319.46 94.95 Z" />
<path fill="#ffffff" opacity="1.00" d=" M 0.00 73.21 C 1.84 71.19 3.83 69.31 5.76 67.38 C 7.72 69.34 9.67 71.29 11.62 73.25 C 9.67 75.21 7.71 77.16 5.73 79.10 C 3.87 77.23 1.97 75.40 0.00 73.65 L 0.00 73.21 Z" />
<path fill="#ffffff" opacity="1.00" d=" M 352.28 73.09 C 354.21 71.10 356.18 69.15 358.35 67.42 C 360.26 69.40 362.22 71.33 364.10 73.34 C 362.14 75.22 360.21 77.15 358.33 79.11 C 356.25 77.16 354.25 75.15 352.28 73.09 Z" />
<path fill="#ffffff" opacity="1.00" d=" M 158.48 126.29 C 165.83 122.65 175.45 122.57 181.95 128.01 C 188.12 122.99 197.06 122.55 204.19 125.66 C 212.17 128.99 218.19 136.48 227.01 137.81 C 231.61 138.36 233.05 131.52 229.75 129.06 C 227.40 126.70 224.40 129.00 221.94 129.85 C 223.19 126.10 227.15 123.66 231.04 125.12 C 238.27 126.68 241.22 135.73 237.92 141.92 C 234.40 150.13 224.59 152.08 216.64 153.00 L 208.35 153.00 C 198.74 152.08 189.52 148.28 182.00 142.23 C 174.46 148.24 165.27 152.07 155.66 153.00 L 147.25 153.00 C 141.42 152.21 135.24 151.27 130.43 147.59 C 125.43 143.81 123.26 136.56 125.76 130.74 C 127.66 126.25 133.20 123.81 137.82 125.17 C 140.01 125.85 141.11 127.99 142.03 129.91 C 139.69 129.20 137.20 126.93 134.77 128.64 C 130.69 130.69 132.03 138.40 137.00 137.77 C 145.31 136.58 151.05 129.60 158.48 126.29 Z" />
</g>
<g id="#626365fe">
<path fill="#626365" opacity="1.00" d=" M 211.50 57.54 C 212.05 57.51 213.15 57.45 213.70 57.42 C 213.84 71.93 213.68 86.45 213.78 100.96 C 211.19 101.00 208.59 101.00 206.00 101.01 C 206.00 100.44 206.00 99.30 206.00 98.74 C 207.81 98.75 209.62 98.77 211.43 98.79 C 211.58 85.04 211.45 71.29 211.50 57.54 Z" />
<path fill="#626365" opacity="1.00" d=" M 331.15 57.25 C 331.68 57.35 332.74 57.57 333.26 57.68 C 333.23 72.13 333.26 86.57 333.25 101.02 C 330.56 101.03 327.87 101.00 325.20 100.80 C 325.33 100.28 325.59 99.24 325.71 98.72 C 327.46 98.74 329.21 98.76 330.96 98.79 C 331.14 84.94 330.78 71.09 331.15 57.25 Z" />
<path fill="#626365" opacity="1.00" d=" M 59.41 57.72 C 60.39 58.97 61.84 60.11 61.87 61.85 C 62.13 67.24 62.19 72.68 61.56 78.05 C 60.45 78.11 59.33 78.16 58.22 78.21 C 60.18 71.54 59.40 64.57 59.41 57.72 Z" />
<path fill="#626365" opacity="1.00" d=" M 125.41 57.81 C 126.45 59.02 128.00 60.12 127.93 61.90 C 128.09 67.26 128.01 72.64 127.98 78.00 C 128.26 80.08 126.74 81.58 125.48 82.98 C 126.51 88.98 127.50 94.99 128.50 101.00 C 126.00 101.00 123.50 101.12 121.01 100.89 C 120.82 100.36 120.46 99.29 120.27 98.76 C 122.20 98.75 124.12 98.76 126.04 98.77 C 125.14 92.67 124.00 86.61 123.08 80.52 C 123.88 79.38 125.55 78.53 125.44 76.95 C 125.59 70.57 125.50 64.19 125.41 57.81 Z" />
<path fill="#626365" opacity="1.00" d=" M 244.28 59.02 C 243.39 56.60 247.55 56.87 246.76 59.00 C 246.78 72.98 246.70 86.97 246.79 100.95 C 244.25 100.99 241.70 101.14 239.17 100.89 C 238.95 100.36 238.53 99.30 238.32 98.77 C 240.27 98.75 242.23 98.75 244.19 98.76 C 244.35 85.52 244.16 72.26 244.28 59.02 Z" />
<path fill="#626365" opacity="1.00" d=" M 277.25 57.71 C 281.26 61.02 279.32 66.60 279.76 71.07 C 277.82 71.58 275.88 72.09 273.96 72.66 C 273.63 79.03 274.74 85.60 273.39 91.83 C 272.94 85.27 273.57 78.69 273.05 72.15 C 272.74 71.58 272.12 70.45 271.81 69.88 C 273.70 69.67 275.58 69.30 277.45 68.92 C 277.57 65.18 277.50 61.44 277.25 57.71 Z" />
<path fill="#626365" opacity="1.00" d=" M 304.43 77.06 C 306.74 70.66 308.38 64.02 310.88 57.69 C 311.61 57.58 313.07 57.38 313.80 57.28 C 311.85 64.65 308.95 71.75 307.07 79.13 C 308.89 86.51 311.57 93.68 313.88 100.93 C 311.28 100.99 308.67 101.01 306.07 101.01 C 305.88 100.50 305.49 99.48 305.29 98.97 C 307.27 98.84 309.25 98.75 311.24 98.67 C 309.12 91.42 306.67 84.27 304.43 77.06 Z" />
<path fill="#626365" opacity="1.00" d=" M 43.33 59.39 C 44.97 58.96 46.69 59.04 48.37 58.87 C 49.24 62.37 48.11 65.91 48.18 69.45 C 46.55 69.57 44.89 69.73 43.26 69.54 L 43.42 69.51 C 44.13 69.40 45.56 69.20 46.27 69.09 C 46.57 67.12 46.74 65.14 46.90 63.15 L 48.30 63.52 C 47.95 62.34 48.42 60.44 46.93 59.95 C 45.74 59.71 44.54 59.52 43.33 59.39 Z" />
<path fill="#626365" opacity="1.00" d=" M 92.47 57.75 C 93.83 59.17 95.29 60.79 94.99 62.93 C 95.00 73.99 95.04 85.05 94.97 96.10 C 95.12 98.75 92.70 101.14 90.06 100.97 C 86.32 101.06 82.57 101.08 78.83 100.95 C 77.03 101.07 75.88 99.44 74.65 98.46 C 79.58 98.67 84.61 99.20 89.51 98.38 C 92.68 97.50 92.81 93.74 92.77 91.05 C 92.59 79.95 93.06 68.84 92.47 57.75 Z" />
<path fill="#626365" opacity="1.00" d=" M 157.63 57.76 C 158.49 59.02 160.13 60.09 159.97 61.84 C 160.05 73.27 160.00 84.70 159.99 96.13 C 160.28 98.47 158.43 100.78 156.07 100.90 C 152.00 101.11 147.91 101.08 143.84 100.92 C 142.09 100.99 141.01 99.36 139.73 98.49 C 144.46 98.73 149.23 99.03 153.95 98.55 C 156.51 98.22 158.06 95.51 157.76 93.08 C 157.69 81.31 157.88 69.53 157.63 57.76 Z" />
<path fill="#626365" opacity="1.00" d=" M 190.66 57.75 C 192.09 59.17 193.42 60.87 193.22 63.02 C 193.27 74.01 193.29 85.01 193.21 96.00 C 193.41 98.79 190.87 101.23 188.10 100.98 C 183.05 101.01 178.00 101.10 172.97 100.92 C 172.87 100.38 172.68 99.30 172.58 98.76 C 177.09 98.67 181.61 98.91 186.12 98.66 C 188.52 98.67 190.90 96.58 190.72 94.08 C 190.75 81.97 190.82 69.86 190.66 57.75 Z" />
<path fill="#626365" opacity="1.00" d=" M 79.71 69.95 C 79.76 67.31 79.29 64.41 81.00 62.15 C 81.43 70.36 81.34 78.62 81.10 86.84 C 80.77 86.98 80.10 87.26 79.77 87.40 C 79.71 81.58 79.80 75.77 79.71 69.95 Z" />
<path fill="#626365" opacity="1.00" d=" M 112.86 63.33 C 113.21 63.17 113.91 62.84 114.26 62.68 C 114.25 64.92 114.25 67.16 114.27 69.40 C 112.64 69.45 110.90 70.15 109.35 69.39 C 110.08 69.35 111.54 69.27 112.27 69.23 C 112.58 67.28 112.73 65.31 112.86 63.33 Z" />
<path fill="#626365" opacity="1.00" d=" M 264.61 63.75 C 264.93 63.42 265.56 62.75 265.87 62.42 C 266.00 63.93 266.18 65.45 266.50 66.93 C 266.64 67.52 266.93 68.68 267.07 69.26 C 268.33 69.30 269.67 69.14 270.86 69.70 C 267.65 69.67 264.44 69.65 261.24 69.43 C 262.04 69.44 263.63 69.47 264.43 69.48 C 264.46 67.57 264.46 65.66 264.61 63.75 Z" />
<path fill="#626365" opacity="1.00" d=" M 277.31 75.59 C 278.36 76.87 279.82 78.13 279.71 79.96 C 279.82 85.33 279.76 90.70 279.74 96.08 C 279.99 98.65 277.68 101.06 275.11 100.96 C 271.37 101.07 267.63 101.07 263.90 100.96 C 262.05 101.15 260.79 99.64 259.63 98.49 C 264.13 98.74 268.64 98.98 273.14 98.61 C 275.50 98.52 277.50 96.36 277.44 94.00 C 277.58 87.86 277.56 81.72 277.31 75.59 Z" />
<path fill="#626365" opacity="1.00" d=" M 9.48 82.92 C 11.44 80.89 13.44 78.91 15.52 77.00 C 16.06 77.58 17.15 78.76 17.70 79.35 C 15.81 81.33 13.89 83.27 11.95 85.20 C 11.13 84.44 10.31 83.68 9.48 82.92 Z" />
<path fill="#626365" opacity="1.00" d=" M 48.26 77.00 C 48.29 80.41 48.26 83.82 48.23 87.23 C 46.59 87.37 44.90 87.65 43.28 87.21 C 44.02 87.15 45.48 87.03 46.21 86.97 C 47.24 85.34 46.62 83.35 46.70 81.55 C 47.08 81.19 47.84 80.46 48.22 80.09 C 48.23 79.32 48.25 77.78 48.26 77.00 Z" />
<path fill="#626365" opacity="1.00" d=" M 362.01 82.86 C 363.98 80.88 365.96 78.90 367.95 76.92 C 368.46 77.50 369.49 78.66 370.00 79.24 L 370.00 79.59 C 368.19 81.55 366.24 83.38 364.30 85.21 C 363.73 84.62 362.58 83.45 362.01 82.86 Z" />
<path fill="#626365" opacity="1.00" d=" M 59.58 80.44 C 60.00 79.67 60.47 78.93 60.98 78.22 C 62.72 83.66 61.80 89.43 62.00 95.03 C 62.31 97.60 60.83 100.54 58.07 100.88 C 52.44 101.12 46.78 101.11 41.15 100.78 C 41.30 100.27 41.62 99.25 41.78 98.73 C 46.21 98.68 50.64 98.93 55.07 98.64 C 57.11 98.59 59.19 96.99 59.41 94.91 C 59.75 90.09 59.25 85.26 59.58 80.44 Z" />
<path fill="#626365" opacity="1.00" d=" M 259.26 79.42 C 261.49 79.96 263.54 81.25 266.02 80.81 C 266.02 81.42 266.02 82.64 266.02 83.24 C 264.88 83.00 262.60 82.53 261.47 82.29 C 261.19 83.73 260.81 85.24 261.22 86.70 C 262.70 87.90 264.36 86.40 265.90 86.07 C 265.85 86.36 265.77 86.95 265.73 87.24 C 263.98 87.41 262.23 87.56 260.49 87.71 C 260.21 85.11 260.26 82.51 260.18 79.90 L 259.51 79.68 L 259.26 79.42 Z" />
<path fill="#626365" opacity="1.00" d=" M 112.95 84.69 C 113.54 88.17 114.22 91.63 114.89 95.09 C 115.28 97.03 115.27 99.02 115.32 100.99 C 112.73 101.01 110.14 101.08 107.56 100.93 C 106.50 97.50 110.84 99.09 112.76 98.71 C 112.79 94.04 112.59 89.36 112.95 84.69 Z" />
<path fill="#626365" opacity="1.00" d=" M 297.20 85.88 C 298.14 88.90 299.13 91.92 299.88 95.00 C 300.10 96.99 300.01 99.01 300.02 101.01 C 297.37 101.01 294.72 100.99 292.08 100.92 C 292.16 100.37 292.31 99.27 292.39 98.72 C 294.17 98.74 295.94 98.75 297.73 98.76 C 297.66 94.47 298.13 90.11 297.20 85.88 Z" />
</g>
<g id="#b1b2b3ff">
<path fill="#b1b2b3" opacity="1.00" d=" M 178.91 63.07 L 179.33 62.01 C 180.56 66.94 179.82 72.04 180.00 77.06 C 179.91 80.72 180.54 84.53 179.13 88.03 C 178.68 79.72 178.93 71.38 178.91 63.07 Z" />
</g>
<g id="#c6c6c6c9">
<path fill="#c6c6c6" opacity="0.79" d=" M 146.48 87.15 C 146.09 79.41 146.00 71.61 146.52 63.88 C 146.87 71.62 146.93 79.41 146.48 87.15 Z" />
</g>
</svg>
