<?xml version="1.0" encoding="UTF-8" ?>
<!DOCTYPE svg PUBLIC "-//W3C//DTD SVG 1.1//EN" "http://www.w3.org/Graphics/SVG/1.1/DTD/svg11.dtd">
<svg width="226pt" height="30pt" viewBox="0 0 226 30" version="1.1" xmlns="http://www.w3.org/2000/svg">
<g id="#ffffffff">
<path fill="#ffffff" opacity="1.00" d=" M 21.50 0.00 L 32.78 0.00 C 35.54 3.56 33.93 8.48 33.88 12.62 L 33.93 14.24 C 34.00 17.56 34.04 20.88 34.16 24.20 C 33.71 25.54 32.49 26.65 31.00 26.47 C 27.83 26.60 24.67 26.48 21.50 26.49 C 21.50 17.66 21.50 8.83 21.50 0.00 M 25.97 4.73 C 25.98 6.81 25.99 8.88 26.01 10.96 C 26.80 10.98 28.37 11.03 29.15 11.05 C 29.24 8.89 29.33 6.73 29.42 4.57 C 28.27 4.63 27.12 4.67 25.97 4.73 M 26.27 15.46 C 26.27 17.18 26.19 18.90 26.15 20.63 L 26.48 21.18 L 26.30 21.61 C 27.37 21.91 28.46 22.13 29.57 22.28 C 29.16 19.92 29.24 17.51 29.34 15.12 L 29.28 15.55 C 28.53 15.53 27.02 15.48 26.27 15.46 Z" />
<path fill="#ffffff" opacity="1.00" d=" M 43.10 0.00 L 53.05 0.00 C 54.81 1.93 54.14 4.66 54.27 7.02 C 54.11 13.00 54.50 19.00 54.09 24.98 C 52.81 27.05 50.06 26.38 48.02 26.56 C 45.99 26.40 43.28 27.00 41.97 24.98 C 41.44 19.35 41.91 13.67 41.73 8.02 C 41.88 5.32 41.08 2.21 43.10 0.00 M 46.51 21.82 C 47.43 21.74 48.34 21.66 49.25 21.58 C 49.29 15.97 48.99 10.35 49.52 4.76 C 48.77 4.75 47.26 4.75 46.51 4.74 C 46.50 10.43 46.49 16.13 46.51 21.82 Z" />
<path fill="#ffffff" opacity="1.00" d=" M 62.00 0.00 L 73.20 0.00 C 74.92 1.96 74.46 4.64 74.54 7.04 C 74.46 9.98 75.01 13.18 73.11 15.71 C 73.64 19.29 74.27 22.86 74.88 26.43 C 73.31 26.48 71.74 26.54 70.17 26.59 C 69.80 24.67 69.39 22.75 69.07 20.82 C 68.67 18.76 68.85 16.25 66.93 14.86 C 66.65 18.73 66.76 22.62 66.75 26.50 C 65.17 26.50 63.59 26.50 62.00 26.51 C 61.99 17.67 62.00 8.84 62.00 0.00 M 66.50 4.57 C 66.45 6.65 66.39 8.74 66.34 10.82 C 67.55 10.86 68.76 10.90 69.97 10.93 C 69.94 8.71 69.92 6.49 69.84 4.26 C 68.72 4.36 67.61 4.47 66.50 4.57 Z" />
<path fill="#ffffff" opacity="1.00" d=" M 83.02 0.00 L 92.78 0.00 C 93.66 1.15 94.44 2.42 94.24 3.95 C 94.19 10.59 94.43 17.25 94.12 23.89 C 93.81 26.90 90.22 26.54 88.03 26.56 C 85.87 26.37 83.03 27.10 81.70 24.87 C 81.20 17.25 81.65 9.59 81.49 1.95 C 81.87 1.46 82.64 0.49 83.02 0.00 M 86.23 4.80 C 86.28 10.45 86.24 16.10 86.25 21.75 C 86.87 21.75 88.11 21.75 88.73 21.76 C 88.93 16.08 88.20 10.33 89.31 4.72 C 88.54 4.74 87.00 4.78 86.23 4.80 Z" />
<path fill="#ffffff" opacity="1.00" d=" M 101.75 0.00 L 112.87 0.00 C 113.23 0.42 113.95 1.25 114.31 1.67 C 114.06 9.42 114.52 17.18 114.09 24.92 C 111.00 28.04 105.73 25.88 101.75 26.49 C 101.75 17.66 101.75 8.83 101.75 0.00 M 106.52 21.83 C 107.43 21.74 108.34 21.66 109.25 21.57 C 109.29 15.96 108.99 10.34 109.52 4.75 C 108.77 4.75 107.26 4.75 106.51 4.74 C 106.50 10.44 106.49 16.13 106.52 21.83 Z" />
<path fill="#ffffff" opacity="1.00" d=" M 122.25 0.00 L 127.00 0.00 C 127.00 8.84 127.00 17.67 127.00 26.51 C 125.41 26.50 123.83 26.50 122.24 26.49 C 122.26 17.66 122.25 8.83 122.25 0.00 Z" />
<path fill="#ffffff" opacity="1.00" d=" M 134.50 0.00 L 139.16 0.00 C 140.42 3.30 140.82 6.98 142.81 9.96 C 141.89 6.73 142.24 3.31 142.36 0.00 L 147.00 0.00 C 147.04 8.80 146.91 17.61 147.07 26.41 L 146.72 26.41 C 145.18 26.27 143.64 26.16 142.10 26.10 C 141.80 25.03 141.50 23.96 141.20 22.89 C 140.63 20.67 139.99 18.47 139.34 16.27 C 139.23 19.68 139.24 23.09 139.25 26.50 C 137.66 26.50 136.08 26.50 134.50 26.50 C 134.49 17.67 134.50 8.83 134.50 0.00 Z" />
<path fill="#ffffff" opacity="1.00" d=" M 155.67 0.00 L 165.73 0.00 C 168.07 2.10 167.05 5.42 167.28 8.17 C 165.50 8.65 163.73 9.15 161.97 9.68 C 162.20 8.04 162.40 6.40 162.61 4.77 C 161.57 4.76 160.53 4.75 159.50 4.74 C 159.50 6.72 159.50 8.71 159.50 10.69 C 161.65 10.51 163.81 10.63 165.95 10.97 C 166.29 11.42 166.96 12.31 167.30 12.76 C 167.09 16.79 167.59 20.86 166.97 24.86 C 164.95 27.65 160.90 26.23 157.96 26.48 C 153.34 26.56 154.67 20.84 154.46 17.86 C 156.44 17.50 158.45 17.23 160.47 17.34 L 159.02 18.45 C 159.07 19.43 159.14 20.40 159.22 21.37 L 159.23 21.52 C 160.03 21.54 161.62 21.58 162.41 21.60 C 162.53 19.59 162.64 17.58 162.67 15.57 C 159.93 15.17 155.30 16.77 154.63 12.94 C 154.53 8.64 153.76 4.03 155.67 0.00 Z" />
<path fill="#ffffff" opacity="1.00" d=" M 174.75 0.00 L 179.50 0.00 C 179.51 3.68 179.49 7.35 179.51 11.03 C 180.80 7.38 181.84 3.64 183.17 0.00 L 188.10 0.00 C 186.62 4.32 185.04 8.63 183.98 13.08 C 184.97 17.65 186.74 22.02 188.11 26.49 C 186.42 26.50 184.73 26.51 183.04 26.52 C 182.59 24.26 181.88 22.05 181.17 19.86 C 180.67 18.30 180.11 16.76 179.54 15.22 C 179.47 18.98 179.50 22.74 179.50 26.50 C 177.92 26.50 176.33 26.50 174.75 26.50 C 174.75 17.67 174.75 8.83 174.75 0.00 Z" />
<path fill="#ffffff" opacity="1.00" d=" M 195.00 0.00 L 200.00 0.00 C 200.00 8.83 200.00 17.67 200.00 26.50 C 198.33 26.50 196.66 26.50 195.00 26.50 C 195.00 17.67 195.00 8.83 195.00 0.00 Z" />
<path fill="#ffffff" opacity="1.00" d=" M 3.46 9.35 C 4.72 10.60 5.98 11.85 7.23 13.10 C 5.99 14.37 4.75 15.63 3.51 16.90 C 2.32 15.72 1.13 14.54 0.00 13.31 L 0.00 12.94 C 1.12 11.71 2.30 10.54 3.46 9.35 Z" />
<path fill="#ffffff" opacity="1.00" d=" M 218.63 9.41 C 219.97 10.60 221.23 11.88 222.53 13.13 C 221.25 14.38 219.97 15.63 218.68 16.87 C 217.47 15.61 216.25 14.36 215.06 13.09 C 216.25 11.87 217.45 10.64 218.63 9.41 Z" />
</g>
<g id="#636466ff">
<path fill="#636466" opacity="1.00" d=" M 189.74 3.61 C 190.25 3.54 191.26 3.40 191.77 3.33 C 190.40 7.89 188.88 12.40 187.49 16.94 C 188.96 21.28 190.34 25.64 191.70 30.00 L 186.70 30.00 C 186.67 29.61 186.61 28.84 186.58 28.45 C 187.44 28.48 189.16 28.52 190.01 28.55 C 188.90 24.05 186.69 19.78 186.17 15.16 C 187.02 11.21 188.59 7.47 189.74 3.61 Z" />
<path fill="#636466" opacity="1.00" d=" M 25.97 4.73 C 27.12 4.67 28.27 4.63 29.42 4.57 C 29.33 6.73 29.24 8.89 29.15 11.05 C 28.37 11.03 26.80 10.98 26.01 10.96 C 25.99 8.88 25.98 6.81 25.97 4.73 M 26.84 6.01 C 26.49 7.06 26.11 9.37 27.55 9.68 C 28.41 8.53 28.96 6.66 28.41 5.29 C 28.02 5.47 27.23 5.83 26.84 6.01 Z" />
<path fill="#636466" opacity="1.00" d=" M 36.47 3.28 C 38.60 6.80 37.59 11.03 37.62 14.90 C 37.28 19.92 38.73 25.17 36.89 30.00 L 24.35 30.00 C 27.32 26.79 32.34 29.89 35.57 27.71 C 37.07 24.11 35.94 19.81 36.17 15.98 C 33.43 17.76 35.26 21.57 34.16 24.20 C 34.04 20.88 34.00 17.56 33.93 14.24 C 34.58 14.22 35.89 14.19 36.54 14.18 C 36.17 10.56 36.10 6.90 36.47 3.28 Z" />
<path fill="#636466" opacity="1.00" d=" M 56.64 3.32 C 58.83 6.83 57.81 11.12 58.00 15.01 C 57.71 20.00 58.80 25.18 57.14 30.00 L 46.91 30.00 C 46.63 29.62 46.09 28.85 45.82 28.46 C 49.22 27.97 53.83 29.92 56.30 26.95 C 56.89 19.10 56.16 11.19 56.64 3.32 Z" />
<path fill="#636466" opacity="1.00" d=" M 76.81 3.45 C 77.57 4.86 78.31 6.34 78.26 7.99 C 78.32 11.95 78.77 16.15 76.84 19.78 C 77.35 23.20 77.89 26.62 78.62 30.00 L 73.61 30.00 C 73.60 29.62 73.58 28.86 73.57 28.48 C 74.41 28.49 76.08 28.50 76.92 28.51 C 76.50 24.92 75.16 21.33 75.61 17.70 C 77.48 13.15 76.52 8.21 76.81 3.45 Z" />
<path fill="#636466" opacity="1.00" d=" M 96.47 3.28 C 98.47 6.51 97.62 10.41 97.75 14.00 C 97.49 19.33 98.44 24.79 96.99 30.00 L 87.15 30.00 C 86.62 29.62 85.56 28.87 85.02 28.50 C 88.34 28.46 91.69 28.74 94.99 28.25 C 95.26 27.92 95.79 27.26 96.05 26.93 C 96.68 19.07 95.84 11.15 96.47 3.28 Z" />
<path fill="#636466" opacity="1.00" d=" M 116.64 3.34 C 117.41 4.78 118.11 6.31 118.01 7.99 C 118.09 14.73 117.89 21.48 118.07 28.22 C 117.64 28.67 116.78 29.56 116.34 30.00 L 104.67 30.00 C 107.79 26.57 113.57 30.54 116.30 26.94 C 116.90 19.09 116.16 11.20 116.64 3.34 Z" />
<path fill="#636466" opacity="1.00" d=" M 149.25 28.48 C 149.68 19.82 148.34 10.99 150.02 2.45 C 151.62 11.52 150.34 20.83 150.75 30.00 L 146.20 30.00 C 145.97 29.64 145.50 28.91 145.27 28.54 C 146.59 28.52 147.92 28.49 149.25 28.48 Z" />
<path fill="#636466" opacity="1.00" d=" M 169.47 3.21 C 171.28 5.76 171.07 8.92 171.07 11.88 C 169.81 12.18 168.55 12.47 167.30 12.76 C 166.96 12.31 166.29 11.42 165.95 10.97 C 167.14 10.85 168.34 10.70 169.54 10.54 C 169.49 8.09 169.44 5.65 169.47 3.21 Z" />
<path fill="#636466" opacity="1.00" d=" M 9.38 15.26 C 9.90 15.82 10.42 16.39 10.94 16.96 C 9.70 18.18 8.47 19.40 7.24 20.62 C 6.84 20.21 6.04 19.40 5.64 19.00 C 6.88 17.74 8.13 16.50 9.38 15.26 Z" />
<path fill="#636466" opacity="1.00" d=" M 29.28 15.55 L 29.34 15.12 C 29.24 17.51 29.16 19.92 29.57 22.28 C 28.46 22.13 27.37 21.91 26.30 21.61 L 26.48 21.18 C 27.18 20.84 27.88 20.49 28.57 20.11 C 28.79 18.59 29.05 17.07 29.28 15.55 Z" />
<path fill="#636466" opacity="1.00" d=" M 169.54 14.19 C 170.58 15.95 171.18 17.92 171.05 19.99 C 170.94 23.33 171.65 27.01 169.77 30.00 L 159.79 30.00 C 159.57 29.62 159.14 28.85 158.92 28.47 C 162.11 28.18 165.86 29.34 168.69 27.72 C 170.44 23.52 169.04 18.65 169.54 14.19 Z" />
<path fill="#636466" opacity="1.00" d=" M 221.00 19.11 C 222.20 17.90 223.39 16.67 224.64 15.52 C 224.98 15.72 225.66 16.10 226.00 16.30 L 226.00 18.16 L 225.99 17.16 C 224.81 18.32 223.66 19.49 222.48 20.64 C 221.98 20.13 221.49 19.62 221.00 19.11 Z" />
<path fill="#636466" opacity="1.00" d=" M 160.47 17.34 L 161.71 16.48 C 161.90 18.54 160.19 19.89 159.23 21.52 L 159.22 21.37 C 159.14 20.40 159.07 19.43 159.02 18.45 L 160.47 17.34 Z" />
<path fill="#636466" opacity="1.00" d=" M 181.17 19.86 C 181.88 22.05 182.59 24.26 183.04 26.52 C 183.17 27.39 183.44 29.13 183.57 30.00 L 177.60 30.00 C 178.78 28.92 180.27 28.45 181.80 28.11 C 181.80 25.35 181.80 22.56 181.17 19.86 Z" />
<path fill="#636466" opacity="1.00" d=" M 69.07 20.82 C 69.39 22.75 69.80 24.67 70.17 26.59 C 70.38 27.72 70.55 28.86 70.74 30.00 L 64.81 30.00 C 66.15 29.26 67.53 28.61 68.95 28.05 C 69.01 25.64 69.06 23.23 69.07 20.82 Z" />
<path fill="#636466" opacity="1.00" d=" M 141.20 22.89 C 141.50 23.96 141.80 25.03 142.10 26.10 C 143.64 26.16 145.18 26.27 146.72 26.41 C 145.53 26.67 144.34 26.89 143.15 27.11 C 143.09 27.83 142.97 29.28 142.91 30.00 L 137.33 30.00 C 137.67 29.67 138.34 29.00 138.67 28.67 C 139.33 28.58 140.64 28.40 141.29 28.31 C 141.28 26.50 141.28 24.70 141.20 22.89 Z" />
</g>
<g id="#9e9e9fb8">
<path fill="#9e9e9f" opacity="0.72" d=" M 66.50 4.57 C 67.61 4.47 68.72 4.36 69.84 4.26 C 69.92 6.49 69.94 8.71 69.97 10.93 C 68.76 10.90 67.55 10.86 66.34 10.82 C 66.39 8.74 66.45 6.65 66.50 4.57 M 66.88 4.90 C 67.37 6.60 65.63 11.72 68.75 10.48 C 69.15 8.66 69.32 6.79 69.66 4.96 C 68.96 4.95 67.58 4.92 66.88 4.90 Z" />
</g>
<g id="#5e5f61f3">
<path fill="#5e5f61" opacity="0.95" d=" M 129.00 3.48 L 130.52 3.48 C 130.54 12.32 130.52 21.16 130.53 30.00 L 124.80 30.00 C 126.14 29.24 127.53 28.58 128.97 28.02 C 129.03 19.84 128.98 11.66 129.00 3.48 Z" />
<path fill="#5e5f61" opacity="0.95" d=" M 202.00 3.47 L 203.52 3.48 C 203.54 12.32 203.52 21.16 203.53 30.00 L 197.80 30.00 C 199.14 29.24 200.53 28.58 201.97 28.02 C 202.03 19.84 201.98 11.65 202.00 3.47 Z" />
</g>
</svg>
