<?xml version="1.0" encoding="UTF-8" ?>
<!DOCTYPE svg PUBLIC "-//W3C//DTD SVG 1.1//EN" "http://www.w3.org/Graphics/SVG/1.1/DTD/svg11.dtd">
<svg width="370pt" height="100pt" viewBox="0 0 370 100" version="1.1" xmlns="http://www.w3.org/2000/svg">
<g id="#ffffffff">
<path fill="#ffffff" opacity="1.00" d=" M 118.67 0.00 L 122.85 0.00 C 124.28 0.92 125.99 2.06 125.79 4.02 C 126.19 7.37 123.50 9.91 120.84 11.39 C 123.70 14.44 124.05 19.17 121.86 22.70 C 118.46 29.00 109.29 30.36 103.66 26.37 C 98.72 22.89 98.30 14.77 102.86 10.79 C 103.81 9.60 104.99 10.70 105.73 11.53 C 102.61 14.36 101.54 18.77 103.73 22.52 C 106.45 18.22 108.93 13.78 111.51 9.41 C 113.53 6.02 115.16 2.16 118.67 0.00 M 115.38 9.73 C 117.72 9.33 120.54 9.00 121.73 6.59 C 122.85 5.35 122.82 3.09 121.01 2.54 C 117.80 3.39 117.04 7.28 115.38 9.73 M 114.09 11.73 C 111.53 16.11 108.94 20.48 106.40 24.88 C 108.52 25.21 110.69 26.04 112.85 25.47 C 117.28 24.67 120.98 19.39 118.94 15.05 C 118.16 13.03 115.94 12.37 114.09 11.73 Z" />
<path fill="#ffffff" opacity="1.00" d=" M 156.39 18.49 C 159.70 13.07 162.71 7.46 166.09 2.08 C 167.10 1.99 169.12 1.79 170.13 1.70 C 168.88 4.13 167.53 6.52 166.03 8.81 C 167.87 8.66 170.78 8.51 171.10 10.98 C 171.69 15.06 167.90 17.98 166.97 21.74 C 172.47 20.51 173.53 14.42 176.86 10.77 C 179.08 8.51 184.27 7.46 185.71 11.01 C 186.18 16.58 180.22 21.38 174.79 19.92 C 174.48 21.31 173.41 24.27 175.97 24.18 C 177.91 24.51 179.73 23.30 181.29 22.30 C 185.23 19.24 188.05 15.05 190.91 11.03 C 189.64 9.15 189.89 6.81 191.29 5.07 C 193.26 4.88 193.83 7.16 193.46 8.71 C 194.55 10.16 195.98 11.41 196.73 13.07 C 197.45 17.51 191.93 20.39 192.58 24.65 C 199.24 20.99 203.08 14.06 207.61 8.24 C 208.33 8.62 209.75 9.38 210.47 9.75 C 208.72 13.88 208.43 18.38 207.55 22.71 C 214.14 17.16 216.77 8.56 221.67 1.68 C 222.61 1.71 224.51 1.76 225.46 1.78 C 223.90 4.50 222.27 7.19 220.73 9.92 C 222.82 8.92 226.52 7.64 227.28 10.86 C 226.43 15.84 222.35 19.61 220.71 24.36 C 227.02 23.17 229.48 16.42 232.68 11.68 C 234.72 7.95 242.02 7.18 242.91 12.14 C 243.23 15.84 239.90 18.42 239.06 21.82 C 245.02 20.11 246.47 13.48 249.70 8.99 C 252.16 9.12 254.61 8.91 257.07 8.81 C 259.01 8.83 260.11 11.44 259.16 13.01 C 257.57 16.80 254.98 20.07 253.28 23.80 C 255.81 22.50 257.65 20.31 259.88 18.62 C 261.77 18.98 260.70 21.08 259.70 21.73 C 256.72 24.80 252.49 27.25 248.08 26.56 C 246.48 26.36 245.64 24.92 245.07 23.57 C 243.24 26.88 241.42 30.23 239.34 33.39 C 238.23 34.16 236.58 33.58 235.27 33.79 C 237.32 30.17 239.39 26.57 241.56 23.02 C 239.60 23.39 237.43 23.37 236.00 24.98 C 233.43 27.56 228.02 27.66 226.89 23.61 C 224.50 25.41 221.04 28.15 218.11 25.79 C 216.35 23.57 218.39 20.92 219.53 18.91 C 220.70 16.45 223.01 14.28 222.95 11.40 C 216.96 14.44 214.47 20.95 211.19 26.37 C 209.78 26.44 208.49 26.12 207.30 25.43 C 204.15 26.75 199.40 27.80 197.90 23.67 C 195.60 25.76 190.98 28.55 188.76 24.94 C 187.62 20.32 193.93 17.22 192.98 12.60 C 188.31 17.45 184.88 24.34 177.95 26.34 C 174.92 27.45 170.79 26.19 170.45 22.56 C 168.81 23.10 167.11 23.48 165.38 23.64 C 162.84 27.05 156.21 28.59 154.65 23.46 C 152.86 25.20 150.63 26.69 148.05 26.76 C 146.23 26.62 144.83 24.98 145.26 23.15 C 146.32 19.44 149.76 16.71 150.02 12.74 C 144.82 16.82 142.06 24.01 135.47 26.45 C 133.62 27.21 131.69 26.37 130.55 24.84 C 128.70 25.82 126.62 27.31 124.44 26.45 C 122.59 25.99 122.31 23.48 123.11 22.05 C 124.66 19.00 126.52 16.12 128.22 13.15 C 129.60 10.65 132.17 8.62 135.14 8.69 C 137.83 8.82 137.92 12.46 140.58 12.52 C 138.52 16.51 135.46 20.10 134.32 24.47 C 140.44 22.25 143.75 15.98 147.57 11.09 C 146.20 8.92 146.77 6.48 148.42 4.70 C 148.88 5.21 149.81 6.25 150.27 6.76 C 149.32 10.11 154.52 11.63 153.42 15.03 C 152.05 18.27 149.76 21.06 148.63 24.41 C 152.03 23.84 154.32 20.99 156.39 18.49 M 164.23 12.38 C 162.51 14.49 160.60 18.39 163.44 20.39 C 164.77 17.84 166.55 15.51 167.52 12.79 C 167.97 10.63 164.93 10.90 164.23 12.38 M 176.36 18.06 C 179.56 18.35 183.23 14.85 182.18 11.75 C 178.80 11.57 177.79 15.74 176.36 18.06 M 236.95 11.92 C 234.16 15.17 232.15 19.09 230.35 22.96 C 230.76 25.21 233.03 23.40 234.20 23.06 C 233.83 20.93 234.50 19.08 236.71 18.44 C 237.76 16.61 238.99 14.84 239.69 12.82 C 240.34 11.14 237.67 10.62 236.95 11.92 M 132.39 13.00 C 130.21 16.71 127.45 20.26 126.29 24.44 C 131.39 23.35 133.41 17.89 135.67 13.81 C 136.78 11.65 133.17 11.46 132.39 13.00 M 245.52 22.80 C 246.42 22.98 248.23 23.34 249.14 23.52 C 251.34 19.69 254.31 16.11 255.38 11.76 C 249.79 12.49 248.43 18.94 245.52 22.80 M 198.79 22.70 C 200.42 22.43 202.54 24.68 203.67 22.89 C 205.11 20.52 205.05 17.57 205.60 14.91 C 203.30 17.48 201.30 20.32 198.79 22.70 M 158.38 23.60 C 159.71 24.67 160.93 23.56 162.02 22.79 C 161.26 21.76 160.50 20.73 159.75 19.70 C 159.16 20.92 158.06 22.13 158.38 23.60 Z" />
<path fill="#ffffff" opacity="1.00" d=" M 35.25 51.25 C 40.51 51.27 45.77 51.22 51.03 51.25 C 53.20 50.94 55.49 52.65 55.69 54.85 C 55.84 59.24 55.71 63.63 55.76 68.03 C 55.96 69.44 55.29 70.66 54.58 71.81 C 56.27 74.24 55.67 77.24 55.76 80.01 C 55.67 83.63 55.90 87.26 55.66 90.87 C 55.08 92.91 53.01 94.21 50.94 94.19 C 45.71 94.36 40.47 94.22 35.24 94.22 C 35.27 79.90 35.25 65.58 35.25 51.25 M 43.00 58.74 C 43.01 62.06 43.07 65.39 42.86 68.71 L 43.39 68.58 C 44.93 69.32 46.67 68.83 48.30 68.73 C 48.26 65.42 48.19 62.09 48.45 58.79 C 46.63 58.75 44.82 58.75 43.00 58.74 M 43.05 76.10 C 42.97 79.57 43.01 83.05 43.00 86.52 C 44.67 86.40 46.54 86.89 48.08 86.17 C 48.41 82.82 48.93 79.45 48.49 76.09 C 46.67 76.05 44.86 76.10 43.05 76.10 Z" />
<path fill="#ffffff" opacity="1.00" d=" M 71.41 51.39 C 75.97 51.09 80.58 51.25 85.15 51.31 C 87.42 51.48 89.01 53.73 88.97 55.90 C 89.02 66.94 89.01 77.99 88.98 89.02 C 89.18 91.43 87.42 93.79 84.99 94.10 C 81.03 94.40 77.04 94.30 73.07 94.17 C 70.84 94.13 68.44 92.35 68.52 89.96 C 68.47 78.62 68.51 67.29 68.50 55.96 C 68.22 53.94 69.56 52.09 71.41 51.39 M 76.00 58.75 C 76.00 67.98 76.00 77.22 76.00 86.45 C 76.94 86.50 78.81 86.59 79.75 86.64 C 80.10 86.52 80.79 86.28 81.14 86.16 C 81.41 77.23 81.12 68.28 81.37 59.35 C 80.65 57.70 77.55 59.23 76.00 58.75 Z" />
<path fill="#ffffff" opacity="1.00" d=" M 101.54 51.22 C 107.32 51.41 113.12 50.98 118.88 51.42 C 123.22 52.95 121.78 58.45 122.01 61.98 C 121.48 66.75 123.64 72.68 119.48 76.30 C 120.35 82.30 121.52 88.25 122.45 94.24 C 119.94 94.24 117.43 94.26 114.93 94.32 C 114.39 91.33 113.68 88.37 112.99 85.41 C 112.74 82.33 112.25 79.29 111.71 76.25 C 111.10 76.25 109.87 76.25 109.26 76.24 C 109.25 82.25 109.25 88.25 109.25 94.25 C 106.67 94.25 104.08 94.25 101.50 94.25 C 101.52 79.91 101.44 65.56 101.54 51.22 M 109.27 68.77 C 110.87 69.01 112.48 68.90 114.09 68.87 C 113.85 67.16 115.33 63.19 113.25 62.96 C 113.51 62.78 114.04 62.42 114.30 62.24 C 114.28 61.37 114.24 59.62 114.23 58.75 C 112.60 58.75 110.97 58.75 109.35 58.76 C 109.04 62.08 109.04 65.45 109.27 68.77 Z" />
<path fill="#ffffff" opacity="1.00" d=" M 136.42 51.45 C 140.59 50.99 144.81 51.36 149.00 51.24 C 151.64 50.78 154.33 53.23 153.99 55.92 C 154.02 66.98 154.00 78.03 154.00 89.09 C 154.43 91.91 151.72 94.36 149.00 94.20 C 145.36 94.29 141.72 94.35 138.09 94.17 C 135.31 94.26 133.33 91.57 133.51 88.95 C 133.49 78.00 133.49 67.05 133.51 56.10 C 133.46 54.14 134.53 52.16 136.42 51.45 M 141.23 58.79 C 141.25 68.00 141.29 77.22 141.21 86.43 C 142.62 86.47 144.02 86.50 145.43 86.53 C 145.69 77.27 144.54 67.87 146.40 58.74 C 144.67 58.75 142.95 58.76 141.23 58.79 M 145.84 62.53 C 145.20 70.01 145.27 77.59 145.69 85.08 C 145.99 85.43 146.57 86.12 146.86 86.47 C 146.97 79.01 147.16 71.52 146.88 64.07 C 146.62 63.68 146.10 62.91 145.84 62.53 Z" />
<path fill="#ffffff" opacity="1.00" d=" M 166.79 51.24 C 172.25 51.31 177.72 51.17 183.18 51.28 C 185.47 51.36 187.32 53.71 187.00 55.96 C 186.98 67.38 187.05 78.80 186.97 90.21 C 186.85 92.66 184.28 94.29 181.98 94.21 C 176.90 94.34 171.83 94.20 166.75 94.25 C 166.77 79.91 166.70 65.57 166.79 51.24 M 174.24 58.77 C 174.30 68.03 174.17 77.29 174.31 86.56 C 175.34 86.53 177.39 86.49 178.42 86.47 C 178.06 79.65 178.41 72.82 178.25 66.00 C 178.48 64.71 177.87 62.77 179.49 62.15 C 179.49 61.30 179.49 59.59 179.49 58.74 C 177.74 58.75 175.99 58.75 174.24 58.77 M 179.07 63.16 C 178.67 70.77 179.02 78.41 178.86 86.02 C 179.06 86.31 179.45 86.89 179.65 87.18 C 180.33 78.91 179.99 70.58 179.87 62.29 L 179.07 63.16 Z" />
<path fill="#ffffff" opacity="1.00" d=" M 200.02 51.23 C 202.60 51.25 205.17 51.25 207.75 51.25 C 207.76 65.58 207.73 79.90 207.76 94.22 C 205.17 94.25 202.59 94.25 200.00 94.25 C 200.01 79.91 199.97 65.57 200.02 51.23 Z" />
<path fill="#ffffff" opacity="1.00" d=" M 220.25 51.25 C 222.76 51.25 225.28 51.25 227.79 51.25 C 229.39 56.71 231.37 62.06 232.53 67.65 C 233.43 62.23 232.83 56.70 233.01 51.24 C 235.59 51.25 238.17 51.25 240.75 51.25 C 240.73 65.56 240.79 79.87 240.73 94.17 C 238.13 94.09 235.54 94.01 232.95 93.97 C 232.36 91.97 231.78 89.96 231.22 87.95 C 230.13 84.24 229.12 80.50 227.78 76.87 C 227.71 82.66 227.77 88.46 227.74 94.26 C 225.24 94.25 222.74 94.25 220.25 94.24 C 220.26 79.91 220.25 65.58 220.25 51.25 Z" />
<path fill="#ffffff" opacity="1.00" d=" M 253.41 54.35 C 254.89 49.77 260.39 51.58 263.99 51.24 C 267.13 51.49 271.70 50.11 273.30 53.82 C 274.28 57.29 273.52 61.02 273.74 64.60 C 271.24 65.10 268.74 65.65 266.34 66.50 C 266.13 64.98 266.00 63.44 265.93 61.90 C 265.95 61.11 265.98 59.54 265.99 58.75 C 264.25 58.75 262.50 58.75 260.76 58.75 C 260.81 61.97 260.41 65.27 261.18 68.43 C 264.10 69.20 267.18 68.82 270.17 68.94 L 271.26 69.40 C 272.11 70.17 272.90 71.00 273.64 71.89 C 273.88 77.61 273.71 83.34 273.74 89.07 C 273.99 91.79 271.63 94.33 268.89 94.19 C 265.24 94.31 261.59 94.33 257.95 94.18 C 255.94 94.24 254.10 92.82 253.40 90.99 C 253.06 87.51 253.30 84.00 253.29 80.52 C 253.98 80.33 255.35 79.96 256.04 79.78 C 257.32 80.02 259.47 79.37 260.02 81.01 C 260.34 82.97 260.25 84.96 260.35 86.94 C 262.13 86.89 263.92 86.82 265.70 86.66 C 265.75 86.25 265.86 85.45 265.91 85.04 C 265.94 84.42 266.01 83.17 266.05 82.55 C 266.04 81.92 266.03 80.66 266.03 80.04 C 266.00 78.76 265.98 77.49 265.95 76.21 C 261.78 75.67 255.13 78.28 253.35 72.95 C 253.21 66.76 253.10 60.53 253.41 54.35 Z" />
<path fill="#ffffff" opacity="1.00" d=" M 286.25 51.25 C 288.83 51.25 291.40 51.25 293.98 51.24 C 294.10 57.19 293.74 63.16 294.30 69.10 C 295.96 63.08 298.01 57.18 299.89 51.23 C 302.50 51.25 305.11 51.25 307.72 51.26 C 305.63 58.50 302.64 65.51 301.05 72.86 C 302.97 80.08 305.67 87.08 307.78 94.25 C 305.17 94.25 302.57 94.25 299.97 94.24 C 299.46 92.66 298.85 91.11 298.28 89.55 C 297.22 84.89 295.55 80.40 294.36 75.77 C 293.67 81.91 294.12 88.10 294.00 94.26 C 291.41 94.25 288.82 94.24 286.23 94.22 C 286.27 79.90 286.24 65.57 286.25 51.25 Z" />
<path fill="#ffffff" opacity="1.00" d=" M 319.54 51.22 C 322.10 51.26 324.67 51.26 327.23 51.25 C 327.27 65.58 327.24 79.91 327.25 94.25 C 324.66 94.25 322.08 94.25 319.50 94.25 C 319.52 79.91 319.44 65.56 319.54 51.22 Z" />
<path fill="#ffffff" opacity="1.00" d=" M 5.67 66.65 C 7.75 68.59 9.76 70.60 11.72 72.66 C 9.74 74.64 7.75 76.63 5.76 78.61 C 3.83 76.69 1.85 74.81 0.00 72.80 L 0.00 72.43 C 1.84 70.45 3.79 68.59 5.67 66.65 Z" />
<path fill="#ffffff" opacity="1.00" d=" M 352.28 72.66 C 354.21 70.64 356.20 68.68 358.15 66.68 C 360.27 68.58 362.29 70.59 364.19 72.70 C 362.20 74.67 360.22 76.65 358.22 78.61 C 356.25 76.62 354.26 74.64 352.28 72.66 Z" />
</g>
<g id="#636466ff">
<path fill="#636466" opacity="1.00" d=" M 211.47 57.36 C 212.04 57.31 213.16 57.23 213.73 57.19 C 213.78 71.46 213.73 85.73 213.75 100.00 L 205.96 100.00 C 205.98 99.43 206.03 98.29 206.05 97.72 C 207.83 97.75 209.62 97.78 211.40 97.82 C 211.61 84.33 211.47 70.84 211.47 57.36 Z" />
<path fill="#636466" opacity="1.00" d=" M 244.26 57.24 C 244.88 57.24 246.11 57.23 246.73 57.23 C 246.77 71.49 246.73 85.74 246.76 100.00 L 239.09 100.00 C 238.90 99.44 238.50 98.33 238.31 97.77 C 240.26 97.76 242.22 97.76 244.17 97.77 C 244.36 84.26 244.19 70.75 244.26 57.24 Z" />
<path fill="#636466" opacity="1.00" d=" M 310.64 57.34 C 311.68 57.30 312.73 57.26 313.78 57.22 C 311.86 63.18 309.94 69.14 307.96 75.08 C 307.53 76.62 306.78 78.24 307.32 79.86 C 309.25 86.62 311.86 93.18 313.62 100.00 L 306.08 100.00 C 305.89 99.45 305.51 98.34 305.32 97.79 C 307.29 97.76 309.26 97.75 311.23 97.73 C 309.26 90.72 306.54 83.93 304.73 76.88 C 305.91 70.20 308.86 63.90 310.64 57.34 Z" />
<path fill="#636466" opacity="1.00" d=" M 331.15 56.74 C 331.63 56.96 332.57 57.41 333.04 57.63 C 333.53 71.73 333.11 85.88 333.24 100.00 L 325.36 100.00 C 325.46 99.43 325.65 98.28 325.75 97.71 C 327.48 97.74 329.22 97.76 330.97 97.79 C 331.14 84.11 330.78 70.42 331.15 56.74 Z" />
<path fill="#636466" opacity="1.00" d=" M 58.34 75.86 C 60.72 69.94 58.82 63.41 59.70 57.23 C 60.95 58.91 62.21 60.75 61.98 62.96 C 61.89 67.92 62.69 73.09 60.93 77.86 C 62.81 83.39 61.83 89.34 61.95 95.07 C 62.19 97.28 60.65 98.91 58.94 100.00 L 41.36 100.00 C 41.46 99.43 41.66 98.29 41.76 97.72 C 46.46 97.67 51.16 97.97 55.85 97.64 C 58.59 97.38 59.86 94.45 59.51 91.99 C 59.21 86.62 60.45 80.97 58.34 75.86 Z" />
<path fill="#636466" opacity="1.00" d=" M 92.49 57.58 C 93.76 58.72 95.16 60.03 94.95 61.93 C 95.05 72.98 95.03 84.05 94.96 95.11 C 95.21 97.31 93.65 98.92 91.96 100.00 L 77.36 100.00 C 76.71 99.42 75.42 98.26 74.77 97.68 C 79.72 97.60 84.71 98.13 89.64 97.50 C 92.74 96.45 92.83 92.77 92.77 90.05 C 92.61 79.23 93.04 68.39 92.49 57.58 Z" />
<path fill="#636466" opacity="1.00" d=" M 125.53 57.47 C 129.22 60.19 127.74 65.12 128.01 69.02 C 127.68 73.50 129.32 78.86 125.55 82.31 C 126.45 88.22 127.43 94.12 128.51 100.00 L 120.93 100.00 C 120.78 99.44 120.48 98.32 120.33 97.76 C 122.23 97.76 124.12 97.77 126.02 97.78 C 125.09 91.86 124.07 85.97 123.08 80.06 C 123.99 78.80 125.53 77.69 125.45 75.97 C 125.67 69.81 125.36 63.64 125.53 57.47 Z" />
<path fill="#636466" opacity="1.00" d=" M 157.79 57.32 C 158.78 58.69 160.20 60.00 159.97 61.86 C 160.05 72.93 159.98 84.00 160.00 95.07 C 160.31 97.12 158.84 98.64 157.55 100.00 L 142.47 100.00 C 141.80 99.42 140.46 98.26 139.79 97.68 C 144.50 97.67 149.22 97.97 153.93 97.65 C 156.19 97.50 157.82 95.28 157.71 93.09 C 157.87 81.17 157.64 69.24 157.79 57.32 Z" />
<path fill="#636466" opacity="1.00" d=" M 190.80 57.25 C 192.24 58.85 193.47 60.72 193.24 62.98 C 193.25 73.65 193.31 84.32 193.21 94.98 C 193.39 97.05 191.99 98.64 190.64 100.00 L 172.70 100.00 C 172.73 99.44 172.79 98.31 172.81 97.75 C 177.52 97.66 182.24 97.95 186.94 97.65 C 189.20 97.50 190.97 95.31 190.72 93.07 C 190.85 81.13 190.64 69.19 190.80 57.25 Z" />
<path fill="#636466" opacity="1.00" d=" M 277.30 57.38 C 281.36 60.59 279.27 66.19 279.72 70.61 C 277.70 71.06 275.67 71.50 273.64 71.89 C 272.90 71.00 272.11 70.17 271.26 69.40 C 273.37 69.18 275.45 68.76 277.50 68.25 C 277.55 64.62 277.49 61.00 277.30 57.38 Z" />
<path fill="#636466" opacity="1.00" d=" M 48.45 58.79 C 48.19 62.09 48.26 65.42 48.30 68.73 C 46.67 68.83 44.93 69.32 43.39 68.58 C 43.98 68.40 45.17 68.04 45.76 67.86 C 46.96 66.77 46.85 65.18 46.94 63.71 C 47.61 62.13 48.12 60.48 48.45 58.79 Z" />
<path fill="#636466" opacity="1.00" d=" M 81.37 59.35 C 81.12 68.28 81.41 77.23 81.14 86.16 C 80.79 86.28 80.10 86.52 79.75 86.64 C 79.81 79.01 79.62 71.37 79.85 63.74 C 80.49 62.33 81.03 60.87 81.37 59.35 Z" />
<path fill="#636466" opacity="1.00" d=" M 109.27 68.77 C 109.04 65.45 109.04 62.08 109.35 58.76 C 109.82 61.82 108.71 65.19 110.23 68.05 C 110.63 68.05 111.43 68.06 111.84 68.07 C 113.05 66.71 112.77 64.92 112.81 63.27 L 113.25 62.96 C 115.33 63.19 113.85 67.16 114.09 68.87 C 112.48 68.90 110.87 69.01 109.27 68.77 Z" />
<path fill="#636466" opacity="1.00" d=" M 264.42 68.83 C 264.84 66.57 263.48 63.34 265.93 61.90 C 266.00 63.44 266.13 64.98 266.34 66.50 L 266.50 67.64 C 267.72 68.05 268.97 68.44 270.17 68.94 C 267.18 68.82 264.10 69.20 261.18 68.43 C 261.99 68.53 263.61 68.73 264.42 68.83 Z" />
<path fill="#636466" opacity="1.00" d=" M 277.34 74.76 C 281.09 78.20 279.41 83.58 279.76 88.05 C 279.46 92.09 281.11 97.38 276.99 100.00 L 262.17 100.00 C 261.54 99.43 260.28 98.30 259.65 97.74 C 264.40 97.61 269.16 98.03 273.89 97.60 C 276.11 97.31 277.49 95.05 277.43 92.93 C 277.67 86.88 277.47 80.81 277.34 74.76 Z" />
<path fill="#636466" opacity="1.00" d=" M 43.05 76.10 C 44.86 76.10 46.67 76.05 48.49 76.09 C 48.93 79.45 48.41 82.82 48.08 86.17 C 46.54 86.89 44.67 86.40 43.00 86.52 C 43.94 86.50 45.82 86.47 46.76 86.46 C 46.74 84.43 46.73 82.40 46.71 80.38 L 48.14 80.60 C 47.87 79.39 48.42 77.55 47.02 76.91 C 45.73 76.51 44.40 76.24 43.05 76.10 Z" />
<path fill="#636466" opacity="1.00" d=" M 9.42 82.15 C 11.41 80.23 13.37 78.27 15.29 76.29 C 16.10 77.08 16.91 77.89 17.72 78.69 C 15.72 80.65 13.73 82.63 11.76 84.63 C 10.98 83.80 10.20 82.97 9.42 82.15 Z" />
<path fill="#636466" opacity="1.00" d=" M 256.04 79.78 C 257.71 79.14 260.18 78.11 261.52 79.92 C 263.02 79.98 264.52 80.01 266.03 80.04 C 266.03 80.66 266.04 81.92 266.05 82.55 C 264.55 82.20 263.06 81.83 261.58 81.43 C 261.18 83.00 260.94 84.59 260.69 86.18 C 262.53 86.46 264.31 85.96 265.91 85.04 C 265.86 85.45 265.75 86.25 265.70 86.66 C 263.92 86.82 262.13 86.89 260.35 86.94 C 260.25 84.96 260.34 82.97 260.02 81.01 C 259.47 79.37 257.32 80.02 256.04 79.78 Z" />
<path fill="#636466" opacity="1.00" d=" M 112.99 85.41 C 113.68 88.37 114.39 91.33 114.93 94.32 C 115.18 96.20 115.26 98.10 115.37 100.00 L 107.37 100.00 C 107.46 99.43 107.64 98.29 107.72 97.72 C 109.40 97.73 111.07 97.75 112.75 97.77 C 112.71 93.65 112.71 89.52 112.99 85.41 Z" />
<path fill="#636466" opacity="1.00" d=" M 231.22 87.95 C 231.78 89.96 232.36 91.97 232.95 93.97 C 235.54 94.01 238.13 94.09 240.73 94.17 L 240.63 94.19 C 238.36 94.45 236.10 94.66 233.83 94.83 C 233.78 96.55 233.75 98.28 233.72 100.00 L 226.16 100.00 C 226.22 99.43 226.35 98.29 226.42 97.72 C 228.12 97.73 229.81 97.74 231.51 97.75 C 231.52 94.48 231.62 91.20 231.22 87.95 Z" />
<path fill="#636466" opacity="1.00" d=" M 297.68 97.76 C 297.67 95.01 297.85 92.27 298.28 89.55 C 298.85 91.11 299.46 92.66 299.97 94.24 C 300.05 96.16 300.02 98.08 300.01 100.00 L 292.21 100.00 C 292.24 99.43 292.30 98.30 292.33 97.74 C 294.11 97.74 295.90 97.75 297.68 97.76 Z" />
</g>
<g id="#d8d8d9ff">
<path fill="#d8d8d9" opacity="1.00" d=" M 145.84 62.53 C 146.10 62.91 146.62 63.68 146.88 64.07 C 147.16 71.52 146.97 79.01 146.86 86.47 C 146.57 86.12 145.99 85.43 145.69 85.08 C 145.27 77.59 145.20 70.01 145.84 62.53 Z" />
</g>
<g id="#b3b4b5ff">
<path fill="#b3b4b5" opacity="1.00" d=" M 179.07 63.16 L 179.87 62.29 C 179.99 70.58 180.33 78.91 179.65 87.18 C 179.45 86.89 179.06 86.31 178.86 86.02 C 179.02 78.41 178.67 70.77 179.07 63.16 Z" />
</g>
<g id="#616264fa">
<path fill="#616264" opacity="0.98" d=" M 361.89 82.22 C 363.87 80.24 365.86 78.26 367.86 76.31 C 368.40 76.80 369.47 77.77 370.00 78.26 L 370.00 78.80 C 368.16 80.84 366.16 82.72 364.19 84.63 C 363.42 83.83 362.65 83.02 361.89 82.22 Z" />
</g>
</svg>
